# xmcd
#
# Track frame offsets: 
#        150
#        14642
#        26787
#        37227
#        52700
#        62535
#        74235
#        85830
#        97425
#        112037
#        129397
#        143605
#
# Disc length: 2062 seconds
#
# Revision: 1
# Processed by: cddbd v1.5.2PL0 Copyright (c) Steve Scherf et al.
# Submitted via: ExactAudioCopy v1.1
#
DISCID=b2080c0c
DTITLE=Dawnett Faucett - Taking My Time
DYEAR=1990
DGENRE=Country
TTITLE0=Slow Dancin'
TTITLE1=Don't Stop To Count The Memories
TTITLE2=Mama Never Told Me
TTITLE3=This Bus Won't Be Stopping
TTITLE4=Heart, Heart
TTITLE5=Cheap Perfume
TTITLE6=Good For You
TTITLE7=Taking My Time
TTITLE8=As Far As Love Can Throw Me
TTITLE9=Dusty Road
TTITLE10=Two Empty Arms
TTITLE11=Unwanted
EXTD=
EXTT0=
EXTT1=
EXTT2=
EXTT3=
EXTT4=
EXTT5=
EXTT6=
EXTT7=
EXTT8=
EXTT9=
EXTT10=
EXTT11=
PLAYORDER=
